HIERARCHY
ROOT Hips
{
   OFFSET 0.00000 0.00000 0.00000
   CHANNELS 6 Xposition Yposition Zposition Zrotation Xrotation Yrotation
   JOINT RightUpLeg
   {
      OFFSET -8.945800 -8.667070 0.101652
      CHANNELS 3 Zrotation Xrotation Yrotation
      JOINT RightLeg
      {
         OFFSET 0.000000 -44.422697 1.372700
         CHANNELS 3 Zrotation Xrotation Yrotation
         JOINT RightFoot
         {
            OFFSET 0.253549 -42.092399 -1.460590
            CHANNELS 3 Zrotation Xrotation Yrotation
            JOINT RightToes
            {
               OFFSET 0.040000 -4.415090 8.499099
               CHANNELS 3 Zrotation Xrotation Yrotation
               End Site
               {
                  OFFSET -0.080000 -0.137448 9.779790
               }
            }
         }
      }
   }
   JOINT Spine
   {
      OFFSET 0.000000 11.890501 0.000000
      CHANNELS 3 Zrotation Xrotation Yrotation
      JOINT Spine1
      {
         OFFSET 0.000000 25.657401 0.127663
         CHANNELS 3 Zrotation Xrotation Yrotation
         JOINT HEad
         {
            OFFSET 0.000000 8.734161 0.011341
            CHANNELS 3 Zrotation Xrotation Yrotation
            End Site
            {
               OFFSET -0.290000 12.774200 2.513950
            }
         }
         JOINT LeftShoulder1
         {
            OFFSET 8.990000 -0.362252 -0.220000
            CHANNELS 3 Zrotation Xrotation Yrotation
            JOINT LeftArm
            {
               OFFSET 10.282700 -0.003380 0.322123
               CHANNELS 3 Zrotation Xrotation Yrotation
               JOINT LeftForeArm
               {
                  OFFSET 32.766900 0.099144 -1.424340
                  CHANNELS 3 Zrotation Xrotation Yrotation
                  JOINT LeftHand
                  {
                     OFFSET 27.564301 0.085362 1.022160
                     CHANNELS 3 Zrotation Xrotation Yrotation
                     End Site
                     {
                        OFFSET 16.744301 -0.600000 1.502910
                     }
                  }
               }
            }
         }
         JOINT RightShoulder
         {
            OFFSET -8.990000 -0.362252 -0.220000
            CHANNELS 3 Zrotation Xrotation Yrotation
            JOINT RightArm
            {
               OFFSET -10.282700 -0.003380 0.322123
               CHANNELS 3 Zrotation Xrotation Yrotation
               JOINT RightForeArm
               {
                  OFFSET -32.897098 0.099144 -1.424340
                  CHANNELS 3 Zrotation Xrotation Yrotation
                  JOINT RightHand
                  {
                     OFFSET -27.492101 0.085362 1.022160
                     CHANNELS 3 Zrotation Xrotation Yrotation
                     End Site
                     {
                        OFFSET -16.631201 -0.600000 1.502910
                     }
                  }
               }
            }
         }
      }
   }
   JOINT LeftUpLeg
   {
      OFFSET 8.945800 -8.667070 0.101652
      CHANNELS 3 Zrotation Xrotation Yrotation
      JOINT LeftLeg
      {
         OFFSET 0.000000 -44.422697 1.372700
         CHANNELS 3 Zrotation Xrotation Yrotation
         JOINT LeftFoot
         {
            OFFSET -0.253549 -42.092399 -1.460590
            CHANNELS 3 Zrotation Xrotation Yrotation
            JOINT LeftToes
            {
               OFFSET -0.040000 -4.415090 8.499099
               CHANNELS 3 Zrotation Xrotation Yrotation
               End Site
               {
                  OFFSET 0.080000 -0.047448 9.779790
               }
            }
         }
      }
   }
}
MOTION
Frames: 18
Frame Time: 0.016667
-399.580568 100.537499 -28.772008 25.952197 -8.644427 68.628054 -20.467972 21.279528 -7.311267 3.234687 26.899404 -31.853789 -23.470680 15.984017 44.609495 0.670238 -15.563303 -21.139079 -1.692754 27.490721 163.857481 8.424890 -22.119728 -155.249271 5.561365 -11.905011 -0.918894 -85.826641 124.286398 83.897932 -120.043279 52.643908 -211.357171 -44.808544 60.118751 -1.574203 -96.519664 -49.086671 -72.843230 6.798550 86.232258 34.057164 120.187902 111.837613 156.826198 -7.000330 162.620575 74.544350 24.793530 0.950555 48.461770 16.733965 4.708247 -105.453422 -14.662077 -24.903047 134.287106 11.746877 39.118122 -3.756450 -55.567533 -21.544778 5.014417
-399.022592 101.328219 -28.920414 26.099408 -8.034931 67.872170 -21.280274 22.625809 -6.776258 3.026884 27.380516 -30.257933 -21.339377 15.673332 44.567527 0.709187 -15.505040 -21.243847 -1.502893 29.730864 163.476685 8.247062 -19.348124 -156.214240 4.508716 -9.472450 -1.812096 -87.186409 121.936376 84.422771 -117.451031 53.120181 -214.521352 -53.949950 59.812786 2.395152 -100.459187 -51.700478 -78.281426 16.300958 84.609153 32.414237 119.625777 105.597477 157.935161 -5.808789 161.726531 82.979927 17.401001 1.228462 51.203012 15.032355 5.131412 -106.297531 -14.059704 -24.525215 133.579061 12.396896 38.551756 -3.771391 -55.586931 -21.896523 5.306824
-398.460573 101.991814 -29.016883 25.104919 -8.217844 66.989539 -20.511878 23.195408 -6.351235 3.387500 27.833639 -28.248607 -19.872360 16.446204 44.386449 1.021247 -14.742067 -21.400004 -2.222343 30.410984 161.310449 7.150084 -17.652395 -156.755054 3.750792 -8.347363 -3.642279 -88.146542 118.270135 84.651910 -112.384718 54.099073 -218.441484 -64.338756 58.016112 11.593352 -103.085484 -53.462445 -85.685208 23.619455 82.620796 28.941861 120.861454 90.309997 159.267239 -15.093011 153.844028 89.166904 9.530704 2.444275 50.568777 14.120943 5.339336 -106.499977 -13.116916 -23.894896 132.056107 12.998243 36.326125 -3.453379 -55.437258 -23.190340 5.669385
-397.854837 102.696551 -29.138872 23.689258 -9.495720 66.207578 -18.743656 24.272243 -5.170562 5.505017 29.099833 -23.894884 -19.270759 17.025993 44.448310 1.201325 -14.297264 -21.610211 -2.273611 28.210073 157.910832 8.378861 -16.637730 -156.844462 2.932568 -3.542749 -8.716097 -89.126462 113.122843 84.777421 -107.205980 54.999289 -224.704700 -79.194281 51.462955 28.131700 -94.492259 -42.090385 -80.233857 23.784163 80.949223 29.748356 125.561212 61.337353 159.590266 -44.510973 136.750919 113.402771 0.633463 -2.021867 36.341582 14.083134 5.508721 -107.319313 -11.899790 -21.839120 128.544638 13.016958 34.351589 -3.434539 -55.577594 -23.369781 6.331173
-397.182344 103.518704 -29.194819 24.121568 -10.234682 63.821370 -19.402148 26.824400 -3.252136 6.059037 30.307230 -20.120206 -17.766669 17.639505 44.392439 1.641277 -13.310644 -22.183404 1.871678 26.481765 154.359898 12.810886 -17.487157 -154.224456 3.756100 -1.227564 -16.651364 -89.825559 104.971142 85.259899 -100.441572 56.181455 -229.048604 -87.641688 47.145719 34.841563 -90.893589 -43.876473 -81.603624 30.364187 79.248376 16.198101 126.649425 39.208698 153.441347 -43.963110 116.950447 127.339793 -3.536775 -7.291792 20.528665 11.394672 6.527571 -107.757586 -12.649533 -19.280728 124.004789 13.379101 33.008925 -2.598074 -55.784849 -23.337780 7.392313
-396.274065 104.141224 -29.262967 25.176753 -11.268044 66.978092 -18.610251 31.397051 -3.073688 9.124059 31.725863 -18.168194 -16.087973 17.893957 44.270298 2.280747 -12.162814 -23.415770 6.311502 17.331817 154.141059 15.832846 -20.686550 -149.532416 4.347473 5.947486 -25.218354 -91.737152 105.338374 82.556059 -93.478051 57.916890 -226.375214 -93.384068 43.938860 42.563768 -87.778422 -37.625873 -78.638195 37.457276 63.068888 11.964701 126.460802 22.905965 152.377026 -26.618968 92.636032 91.828717 0.188388 -20.590710 14.528321 8.494667 6.497687 -109.211945 -14.755697 -14.807218 117.777200 13.716746 32.551049 -2.017578 -55.769673 -23.047481 8.021741
-395.109781 104.660424 -29.316823 23.953806 -9.653838 71.492382 -17.477500 33.728676 -5.038700 11.793293 30.351182 -17.191827 -15.175553 17.302114 43.519776 2.870665 -11.202998 -24.978637 13.138187 16.639608 162.102218 19.641971 -18.580744 -141.308363 2.964961 13.992140 -33.759573 -94.289792 107.727909 81.603501 -88.349480 58.056683 -221.647712 -102.436384 40.371694 46.606557 -86.680763 -39.430061 -77.350827 41.537136 45.297657 6.723665 127.215238 7.703110 152.317781 -9.995737 66.000692 64.641976 11.177600 -22.513810 30.845961 4.513425 5.315701 -110.687846 -14.270415 -10.067887 109.487782 14.627475 31.096581 -1.525161 -55.556704 -22.725976 8.119509
-393.886141 104.974326 -29.514195 22.461145 -9.512044 72.679210 -16.611790 34.505081 -7.069285 13.597538 29.048497 -17.079291 -14.163709 17.219885 42.453707 3.598768 -10.003683 -26.716538 16.194003 11.939585 165.500497 16.109218 -18.443901 -139.805762 5.268105 13.136653 -42.432922 -96.503791 112.822192 78.293536 -87.691692 60.244133 -220.579101 -103.444847 37.581402 52.445628 -87.774379 -35.317334 -77.365833 37.331673 35.937785 -0.588242 127.337320 -4.789149 147.996621 -0.276307 46.568066 47.392541 23.014094 -21.308310 32.812201 2.315596 5.277732 -110.606902 -12.750266 -6.819645 101.378790 16.566998 30.766239 -0.662170 -55.605639 -21.784730 8.798052
-392.796587 105.328253 -29.856658 20.351966 -9.340352 74.353958 -15.156123 34.474434 -8.796940 14.914179 27.341980 -17.292116 -13.554014 17.201346 41.521027 4.115276 -9.194175 -28.167314 17.062972 7.024207 169.072167 12.488355 -17.129606 -137.645456 7.442998 9.041402 -50.241546 -98.508567 118.331484 75.873566 -88.338443 62.088824 -219.544942 -104.084980 33.827714 57.153531 -89.837785 -35.841592 -79.791110 21.843141 31.237795 6.139570 135.460259 -18.926657 148.515292 3.822174 27.794493 34.363228 24.607286 -10.906518 33.257035 1.494660 5.191001 -110.269859 -10.280820 -4.710565 94.410959 18.495860 30.473668 -0.254582 -55.199345 -21.811249 8.828340
-391.901239 105.758055 -30.366044 16.960560 -9.076059 77.026229 -13.443690 32.760179 -10.457653 16.577549 25.176364 -17.457489 -12.664614 17.874409 41.187236 4.786748 -7.956648 -29.181041 17.146015 3.064058 172.743694 9.420492 -15.341884 -134.897944 9.304429 5.182140 -56.662314 -100.019706 122.661988 73.589906 -88.615195 63.429446 -219.005494 -104.126651 30.108242 60.735941 -89.843584 -34.982538 -80.065554 13.455454 24.515605 -0.785234 132.584244 -23.045726 144.311720 6.068337 10.224799 16.271107 23.387891 -12.854299 20.253125 2.686616 4.686195 -109.422902 -5.174984 -5.140111 88.737312 20.325024 30.587998 -0.328962 -54.610706 -22.406620 8.616659
-391.332315 106.054076 -30.866584 17.712221 -9.292679 77.850694 -13.794400 33.517596 -10.387255 16.505741 25.127653 -17.747412 -11.654943 18.430885 40.935417 5.303087 -7.101155 -30.291209 20.293739 2.840796 173.981953 13.679581 -15.553416 -132.153860 11.093611 4.657216 -61.293073 -100.315063 124.186855 74.288020 -88.980645 62.509318 -219.934414 -103.737822 26.929298 62.436494 -91.675045 -36.081926 -81.316291 0.270629 24.815295 4.693444 143.858742 -21.534850 148.766247 13.708122 -1.692868 11.568840 24.092324 0.214655 17.198536 2.423934 7.312967 -108.820855 -2.388315 -4.551242 84.251872 21.491723 32.191047 -1.502609 -54.176029 -22.798774 8.410586
-390.848574 106.365479 -31.332864 18.337458 -10.828508 77.188425 -13.779710 34.129055 -10.070327 16.631367 25.305183 -18.026232 -10.248041 18.641550 40.950037 5.753042 -6.496721 -31.476852 19.670289 4.111157 172.632294 15.265032 -14.522620 -131.606380 10.873864 4.610879 -64.453353 -102.810391 121.049885 76.204216 -85.736182 62.012654 -221.070260 -100.556920 25.268469 59.691250 -91.783761 -37.336703 -81.850371 0.755343 28.819809 5.763126 141.825094 -12.652387 151.145201 29.134431 -5.510402 13.091895 36.468067 -1.940639 11.259932 3.379631 10.225562 -108.774239 -0.137433 -4.686235 82.235710 23.286154 33.834599 -3.700632 -54.285736 -21.975898 8.535722
-390.140032 106.440676 -31.542115 17.270895 -10.526843 76.282046 -13.660523 33.113105 -8.724068 15.324873 26.059707 -18.541402 -9.217099 18.299900 41.600271 5.782630 -6.757079 -32.140282 19.936964 5.394098 173.502992 12.302966 -12.068912 -130.040313 8.068740 4.321459 -66.334804 -106.465956 117.908859 77.818681 -83.613653 62.251075 -223.152580 -97.366648 24.696709 55.060245 -93.341584 -39.311335 -82.441975 -0.780836 28.757569 4.810908 137.030260 -4.796371 157.095239 36.882830 -12.149114 9.959933 29.876521 11.974502 -4.080446 4.197358 9.289196 -110.009923 0.388208 -6.616888 81.586138 25.461815 34.165163 -6.505231 -53.868186 -22.769354 8.466675
-389.261125 106.675042 -31.489973 14.288962 -12.215164 75.587115 -11.229526 31.097554 -8.275168 14.933497 25.547607 -18.721671 -8.545270 18.935692 42.128231 5.963760 -6.675705 -31.992189 15.634438 6.696699 172.646473 11.272304 -11.031766 -128.481008 7.711319 5.464088 -67.341888 -106.418288 115.824558 80.626442 -81.561222 61.086118 -224.814078 -94.501411 24.284468 52.990243 -95.304696 -40.378624 -81.959565 -4.351950 26.089642 5.247121 131.735894 0.595943 160.144399 41.196679 -18.177106 8.359907 33.070219 8.394111 -6.726209 6.463980 7.564865 -110.593972 1.702831 -7.792066 83.659094 29.410644 33.965783 -7.577164 -53.465508 -24.490608 9.793548
-388.332361 106.806086 -31.179509 12.749662 -12.697081 75.326782 -10.797697 30.279113 -8.713588 15.206108 24.694604 -19.214767 -8.776521 19.884733 42.119430 6.459449 -6.030271 -31.728322 16.755784 5.400116 170.448477 11.290433 -12.095182 -126.939380 11.304162 4.265457 -67.670468 -105.392230 115.812578 81.052543 -81.270058 60.465172 -226.373807 -93.849777 22.941335 52.719218 -99.442780 -41.116161 -82.484513 -5.666934 20.499669 3.830331 131.748776 -0.954690 160.388442 37.762285 -24.240049 9.658203 33.205214 16.020062 -10.856552 5.695646 6.595867 -111.666073 1.130074 -5.558348 85.642772 31.411787 32.055218 -7.534413 -52.618111 -27.823284 11.464635
-387.657350 107.054365 -30.878362 14.382807 -13.801925 76.916249 -10.433448 31.265946 -9.465355 17.078125 26.362466 -20.888916 -9.149142 20.930954 40.897711 7.344636 -4.752663 -32.102620 15.607255 5.677999 168.115148 15.496055 -12.403030 -124.274923 13.618427 2.322131 -66.574025 -103.799833 117.857305 80.121227 -80.286483 60.824125 -225.379358 -93.855344 19.205481 53.111606 -101.221423 -43.088098 -84.441267 -5.179699 17.655351 7.363951 128.909794 0.174489 156.385555 34.778148 -28.708306 9.234830 32.309090 12.077672 -2.790460 5.090648 7.131995 -112.971882 -1.354094 -3.490806 87.159265 31.808737 31.101509 -8.763194 -51.521128 -31.826086 13.238408
-387.202333 107.149161 -30.422284 14.646294 -13.443116 78.103753 -10.931877 31.030799 -9.510209 18.003182 27.144256 -21.777280 -9.689959 22.121417 40.523123 7.821023 -4.212762 -31.829935 13.298809 9.638550 163.955891 16.682998 -11.619618 -123.877447 14.698668 -0.681439 -64.188472 -103.499134 117.217097 79.654144 -80.524126 60.583095 -224.506843 -92.407419 19.819606 48.288184 -103.756557 -45.110510 -86.919362 -4.458318 18.061568 6.830166 128.330307 -6.431955 155.030978 38.001438 -26.498182 7.771805 23.201063 20.805989 -4.845924 3.780978 6.507159 -113.124564 -3.625211 -2.507460 89.306240 31.813368 31.503138 -9.891378 -51.043499 -34.634318 15.326767
-386.979708 107.368382 -29.858143 14.579455 -12.892584 79.308919 -10.862877 30.765593 -9.900941 18.797241 27.182456 -22.849068 -10.669041 23.038066 40.029638 7.928291 -4.428838 -31.367268 11.533831 11.557553 159.084654 17.506342 -12.113590 -123.344966 13.772747 -4.179402 -60.427572 -100.432420 117.522762 79.900427 -81.150099 57.992397 -225.278217 -90.793718 21.073388 44.964778 -107.532661 -46.788872 -86.392426 -1.926613 17.416296 10.400179 126.611490 -12.676148 154.493251 40.252600 -22.529961 11.647113 31.260956 9.935050 6.232898 3.463711 5.846533 -113.227714 -4.200446 -2.349788 90.996397 32.062878 32.041848 -11.012430 -51.058191 -35.877321 16.735096
